PathFileType        4      (X/Y/Z)      C:\Users\aurel\Documents\opensim-MSc\data\transformed_83_35.trc
DataRate	CameraRate	NumFrames	NumMarkers	Units	OrigDataRate	OrigDataStartFrame	OrigNumFrames
120.0	120.0	4	41	mm	120.0	656	1048
Frame#	Time	LFWT			RFWT			LBWT			RBWT			LTHI			LKNE			LSHN			LANK			LHEE			LMT5			LTOE			RTHI			RKNE			RSHN			RANK			RHEE			RMT5			RTOE			CLAV			STRN			C7			T10			RBAC			LFHD			RFHD			LBHD			RBHD			LSHO			LUPA			LELB			LFRM			LWRA			LWRB			LFIN			RSHO			RUPA			RELB			RFRM			RWRA			RWRB			RFIN
		X1	Y1	Z1	X2	Y2	Z2	X3	Y3	Z3	X4	Y4	Z4	X5	Y5	Z5	X6	Y6	Z6	X7	Y7	Z7	X8	Y8	Z8	X9	Y9	Z9	X10	Y10	Z10	X11	Y11	Z11	X12	Y12	Z12	X13	Y13	Z13	X14	Y14	Z14	X15	Y15	Z15	X16	Y16	Z16	X17	Y17	Z17	X18	Y18	Z18	X19	Y19	Z19	X20	Y20	Z20	X21	Y21	Z21	X22	Y22	Z22	X23	Y23	Z23	X24	Y24	Z24	X25	Y25	Z25	X26	Y26	Z26	X27	Y27	Z27	X28	Y28	Z28	X29	Y29	Z29	X30	Y30	Z30	X31	Y31	Z31	X32	Y32	Z32	X33	Y33	Z33	X34	Y34	Z34	X35	Y35	Z35	X36	Y36	Z36	X37	Y37	Z37	X38	Y38	Z38	X39	Y39	Z39	X40	Y40	Z40	X41	Y41	Z41
656	5.458	363.3825400000001	1035.58411	373.94356999999997	394.1171300000001	1056.47083	634.8720099999999	207.22531000000015	1105.25134	441.60103999999995	224.33701000000013	1112.99072	580.7466399999998	307.23117000000013	737.52496	361.96975999999995	314.81473000000005	586.17511	398.0920699999999	226.54832000000005	359.80756	399.52948	166.62106000000003	242.31934	430.22256	111.43882000000004	233.79776000000004	481.17548	254.29163000000003	199.86505	398.32715	302.47244	219.33231	482.13434	455.6230500000001	911.39246	689.36096	638.5703700000001	783.7121	651.24414	623.4650300000001	667.90747	678.43738	596.03406	393.98357999999996	630.8645	542.13489	345.76989999999995	581.21051	696.39575	369.63347999999996	662.61597	732.83844	392.09307999999993	589.43036	428.22308000000015	1440.80676	473.4952399999999	414.62354000000016	1264.57556	483.2686499999999	322.17044000000016	1547.84314	463.48946999999987	208.44652000000016	1348.91931	481.49270999999993	230.60753000000017	1439.95215	550.1649199999999	580.1880500000002	1622.38147	407.9308799999999	549.1585700000003	1627.68896	566.0388199999999	427.1875900000002	1653.55396	409.78298999999987	408.31348000000025	1659.38574	518.1020499999998	360.0974100000002	1520.04688	324.1570099999999	287.12924000000015	1312.19495	243.0556899999999	254.76778000000013	1217.22485	236.84052999999992	266.5192000000001	1047.50903	232.33637999999993	397.2139600000001	965.85651	271.61574999999993	275.3693500000001	941.12616	193.51331999999994	362.9023100000001	893.2337	227.00123999999994	356.49203000000017	1525.15637	618.2686199999999	296.60999000000015	1428.96948	693.2190599999999	195.48364000000015	1259.61243	705.6253099999999	169.48988000000014	1186.72705	703.0983899999999	294.2296800000001	981.59277	766.9025299999998	152.19853000000012	990.16754	788.5421799999999	179.26732000000013	947.31873	785.5634799999999
657	5.467	368.1691300000001	1034.96973	374.41234999999995	398.66284000000013	1055.61621	635.2450599999999	212.60143000000014	1104.9906	442.01406999999995	229.18079000000014	1112.79626	581.3893399999998	309.88501000000014	737.0036	362.16079999999994	316.5539600000001	585.94397	398.25796999999994	227.09761000000006	359.80322	399.60117	166.77034000000003	242.29478	430.46844	111.74876000000003	233.98874000000004	481.23746	253.96904000000004	199.69954	398.40085	302.63297	219.35669	482.03036	459.84604000000013	909.68152	689.99908	642.3114000000002	781.76392	651.89417	626.3823200000002	665.55035	678.4613	596.87341	393.75780999999995	629.61511	542.74622	344.80102999999997	579.41998	696.33655	369.7152699999999	662.38275	733.42908	390.67205999999993	589.48785	433.2801200000002	1440.76672	475.1123699999999	419.3314500000002	1264.36011	484.15004999999996	326.89664000000016	1547.65466	465.0324099999999	213.26076000000018	1348.46057	482.54909999999995	235.09224000000017	1439.50623	551.4877299999999	585.1290300000002	1623.28564	409.9701199999999	553.9071000000002	1627.78589	567.7575699999999	432.3936500000002	1653.51501	411.5213899999999	411.95053000000024	1659.07397	519.8394199999999	364.54623000000015	1520.12585	325.69002999999987	291.5126000000002	1312.61829	244.45821999999993	258.86908000000017	1217.53186	238.03028999999992	270.0038100000001	1047.64526	233.18809999999993	400.1940600000001	965.55823	272.4923999999999	278.3005400000001	941.42529	194.36764999999994	365.5924100000001	893.04327	227.76558999999995	361.1983900000002	1524.59106	619.7515899999999	301.65335000000016	1428.21777	694.6356799999999	199.72305000000014	1258.67896	707.0112899999999	174.73917000000014	1185.49976	703.9915199999999	300.5765100000001	980.83655	767.6195099999999	158.03305000000012	988.60974	789.1589399999999	185.99490000000011	945.92017	786.3077399999999
658	5.475	372.8759500000001	1034.30334	374.94329999999997	403.0222200000001	1054.96106	635.6978799999999	217.65511000000015	1104.86194	442.4728099999999	233.93025000000014	1112.75146	581.9222999999998	312.5455300000001	736.76196	362.53966999999994	317.90482000000003	585.61847	398.34469999999993	227.71298000000004	360.02164	399.63101	166.80586000000002	242.37587	430.58987	112.13121000000002	234.31056000000004	481.28854	253.91893000000002	199.40869	398.56067	302.88239	219.25804	481.8313	464.2022100000001	908.21869	690.76135	646.2173500000001	780.59998	652.24097	629.5542000000002	664.18402	678.36493	597.49158	394.1320799999999	628.85278	543.05823	344.3617899999999	578.25525	696.31049	370.24859999999995	661.94977	733.62762	390.3145799999999	588.84167	438.84384000000017	1440.92285	476.5742499999999	424.52515000000017	1264.32922	485.09014999999994	332.02310000000017	1547.46423	466.5649699999999	218.47446000000016	1348.1167	483.70913999999993	239.96707000000018	1438.82178	552.9851099999998	590.2444500000003	1623.86292	412.4447299999999	557.7661100000003	1627.70764	569.7520799999999	437.65991000000025	1653.59692	413.2766099999999	416.6467300000002	1658.6084	521.9796099999999	369.3999900000002	1520.10632	327.3824199999999	296.19064000000014	1313.00549	245.7898099999999	263.20203000000015	1217.98584	239.19898999999992	273.4549900000001	1048.05396	233.99169999999995	402.9353000000001	965.14868	273.43673999999993	281.1759900000001	941.83777	195.16576999999995	368.32886000000013	892.86536	228.50533999999993	365.7508900000002	1524.0575	621.2128299999999	307.02826000000016	1427.45715	696.0752599999998	205.22183000000015	1257.48474	708.4154699999999	180.67296000000013	1184.2124	705.1299399999999	307.5904500000001	980.16583	768.2988299999998	163.9764300000001	986.9729	790.0269199999999	192.28477000000012	944.67493	787.0211799999998
659	5.483	377.8303500000001	1033.62598	375.45415999999994	406.9861100000001	1054.20972	636.3795799999999	222.34673000000015	1105.06555	442.99093999999997	238.44981000000016	1112.63428	582.4905999999999	315.6004600000001	736.77264	363.09173999999996	319.2904700000001	585.18097	398.59435999999994	228.34866000000005	360.27634	399.7439	166.87128000000004	242.77115	430.48526	112.19728000000003	234.84666000000004	481.23987	253.92661000000004	199.06528	398.67737	302.96716	219.16284	481.75305	468.18427000000014	907.224	691.35175	651.0589000000001	780.43231	652.16632	632.9405500000001	664.24402	678.2738	597.96002	394.71190999999993	629.00232	542.4353	345.27434999999997	578.47363	696.41553	370.57692999999995	661.6153	733.13007	390.00881999999996	588.24261	443.74066000000016	1440.71655	477.7631199999999	429.87753000000015	1264.18494	485.9611499999999	336.87985000000015	1547.13867	468.0427599999999	223.70125000000016	1347.90112	484.87722999999994	245.31882000000016	1438.45422	554.4385999999998	595.0185500000002	1623.43677	414.89821999999987	560.7342500000002	1627.11377	571.4228499999999	442.8857700000002	1653.90186	415.2225599999999	421.6366900000002	1658.56409	523.9665499999999	374.4827300000002	1520.13794	329.0307299999999	300.9118300000002	1313.31995	247.04595999999992	267.94858000000016	1218.51782	240.35253999999992	277.0908500000001	1048.68591	234.95806999999994	405.6612500000001	964.58893	274.53396999999995	283.9918800000001	942.35236	195.85325999999995	371.1220700000001	892.69281	229.33310999999995	370.7725800000002	1523.64795	622.9000199999999	311.69266000000016	1426.59473	697.4476899999999	211.00151000000014	1256.68201	709.3972799999999	186.60922000000014	1183.00293	706.2839999999999	314.8103000000001	979.82739	768.9899299999998	170.30983000000012	985.58179	790.7620199999999	198.6113000000001	943.34357	787.5747099999999
